# File created by Blade
# Date/Time:  Wed Jan 21 16:20:01 2015
# Frame Rate: 120.000 fps
#------------------------------------------------------
:FULLY-SPECIFIED
:DEGREES
942
root 19.930958 35.813560 -20.346015 -179.768539 -0.751559 -179.186950
Spine -4.931669 -0.222550 -3.979374
Head 6.503423 -3.417102 -0.216997
LeftShoulder -7.642502 -24.645989 -3.008253
LeftArm -3.755333 23.735241 -53.450234
LeftForeArm 16.666021 -0.000000 2.495375
LeftHand -0.232780 -0.000000 -14.168063
LeftHandThumb1 -26.253704 0.000000 33.147579
RightShoulder -6.829175 -12.919781 8.120061
RightArm 20.118960 -1.227822 55.277686
RightForeArm -28.524689 -0.000000 9.099619
RightHand -2.589212 -0.000000 8.731095
RightHandThumb1 -24.326973 -0.000000 -32.862282
LeftUpLeg 0.563066 5.233537 2.467785
LeftLeg 2.389118 -0.000000 -0.000000
LeftFoot -0.010160 27.886423 8.627772
LeftToeBase -140.816035 -0.000000 0.000000
RightUpLeg 2.706333 -10.805221 0.989301
RightLeg -0.947796 -0.000000 0.000000
RightFoot -19.043170 -24.883745 15.502186
RightToeBase 22.382150 -0.000000 -0.000000
943
root 20.015945 35.824791 -20.352915 -179.670127 -0.805712 -179.406544
Spine -4.926908 -0.468334 -4.157549
Head 6.136231 -3.257456 0.004379
LeftShoulder -7.610295 -24.705956 -2.588007
LeftArm -3.627716 23.178711 -52.136008
LeftForeArm 16.353515 -0.000000 2.029096
LeftHand -0.355413 -0.000000 -14.375918
LeftHandThumb1 -26.253704 0.000000 33.147579
RightShoulder -6.886603 -12.812561 7.898139
RightArm 19.735051 -0.082468 54.630357
RightForeArm -28.591567 -0.000000 8.962643
RightHand -2.573951 0.000000 8.631471
RightHandThumb1 -24.326973 -0.000000 -32.862282
LeftUpLeg 0.266435 5.301660 2.425206
LeftLeg 2.763717 -0.000000 -0.000000
LeftFoot -0.008360 27.479198 8.356810
LeftToeBase -141.387302 -0.000000 0.000000
RightUpLeg 2.680382 -10.797623 0.925278
RightLeg -1.049445 -0.000000 0.000000
RightFoot -19.056085 -24.966925 15.398795
RightToeBase 22.285484 -0.000000 -0.000000
944
root 20.095099 35.836190 -20.362202 -179.551845 -0.861935 -179.619597
Spine -4.971337 -0.678109 -4.288066
Head 5.866723 -3.112302 0.093141
LeftShoulder -7.543450 -24.745388 -2.259869
LeftArm -3.518015 22.695432 -50.740714
LeftForeArm 16.010705 -0.000000 1.665027
LeftHand -0.567011 0.000000 -14.383652
LeftHandThumb1 -26.253704 0.000000 33.147579
RightShoulder -6.967688 -12.777463 7.593534
RightArm 19.486017 1.730959 54.252187
RightForeArm -29.346005 -0.000000 8.685065
RightHand -2.463039 0.000000 9.003317
RightHandThumb1 -24.326973 -0.000000 -32.862282
LeftUpLeg -0.036577 5.366539 2.380771
LeftLeg 3.127185 -0.000000 -0.000000
LeftFoot -0.060284 27.062806 8.071544
LeftToeBase -141.965770 -0.000000 0.000000
RightUpLeg 2.643374 -10.758167 0.862047
RightLeg -1.163461 -0.000000 0.000000
RightFoot -19.078459 -25.062230 15.234693
RightToeBase 22.474626 -0.000000 -0.000000
945
root 20.174443 35.846715 -20.365952 -179.414384 -0.905466 -179.792242
Spine -5.016580 -0.870546 -4.383772
Head 5.558281 -2.935882 0.201277
LeftShoulder -7.530376 -24.848244 -1.881426
LeftArm -3.419791 22.189612 -49.366788
LeftForeArm 15.701367 0.000000 1.350122
LeftHand -0.753582 -0.000000 -14.272688
LeftHandThumb1 -26.253704 0.000000 33.147579
RightShoulder -7.057378 -12.699416 7.292870
RightArm 19.202098 3.133634 53.679416
RightForeArm -29.770692 -0.000000 8.483209
RightHand -2.362541 0.000000 8.902729
RightHandThumb1 -24.326973 -0.000000 -32.862282
LeftUpLeg -0.398939 5.403205 2.384056
LeftLeg 3.572419 -0.000000 -0.000000
LeftFoot -0.233687 26.609880 7.915046
LeftToeBase -142.627581 -0.000000 0.000000
RightUpLeg 2.559169 -10.658106 0.840604
RightLeg -1.236168 -0.000000 0.000000
RightFoot -19.109272 -25.161880 15.168995
RightToeBase 22.425064 -0.000000 -0.000000
946
root 20.246243 35.855270 -20.372427 -179.270387 -0.969296 -179.963630
Spine -5.084620 -1.089579 -4.462734
Head 5.251866 -2.845241 0.299145
LeftShoulder -7.591456 -24.918527 -1.484571
LeftArm -3.251943 21.664906 -47.985801
LeftForeArm 15.524547 0.000000 1.027024
LeftHand -0.813326 -0.000000 -14.175959
LeftHandThumb1 -26.253704 0.000000 33.147579
RightShoulder -7.141648 -12.702059 6.954280
RightArm 18.883352 4.083849 52.921901
RightForeArm -29.580724 -0.000000 8.479996
RightHand -2.508399 -0.000000 8.982458
RightHandThumb1 -24.326973 -0.000000 -32.862282
LeftUpLeg -0.754217 5.340654 2.371086
LeftLeg 3.994416 -0.000000 -0.000000
LeftFoot -0.446327 26.215724 7.883415
LeftToeBase -143.343928 -0.000000 0.000000
RightUpLeg 2.476740 -10.625000 0.803530
RightLeg -1.312887 -0.000000 0.000000
RightFoot -19.129436 -25.207049 15.073173
RightToeBase 22.420080 -0.000000 -0.000000
947
root 20.316068 35.862789 -20.377335 -179.095393 -1.000453 -180.082832
Spine -5.209852 -1.231027 -4.475923
Head 5.068380 -2.686987 0.360028
LeftShoulder -7.609970 -25.002833 -1.101639
LeftArm -3.141580 21.289558 -46.643292
LeftForeArm 15.225972 0.000000 0.852184
LeftHand -0.996679 -0.000000 -13.875236
LeftHandThumb1 -26.253704 0.000000 33.147579
RightShoulder -7.229319 -12.761659 6.609182
RightArm 18.562664 5.018208 52.111206
RightForeArm -29.250563 -0.000000 8.484783
RightHand -2.639452 -0.000000 8.916843
RightHandThumb1 -24.326973 -0.000000 -32.862282
LeftUpLeg -1.152954 5.362127 2.410364
LeftLeg 4.447433 -0.000000 -0.000000
LeftFoot -0.822631 25.656514 7.951420
LeftToeBase -144.147681 -0.000000 0.000000
RightUpLeg 2.350702 -10.536878 0.822367
RightLeg -1.380097 -0.000000 0.000000
RightFoot -19.149630 -25.280759 15.015603
RightToeBase 22.414197 -0.000000 -0.000000
948
root 20.384596 35.869414 -20.383486 -178.927370 -1.024742 -180.189921
Spine -5.337119 -1.362489 -4.474798
Head 4.873082 -2.632991 0.409398
LeftShoulder -7.679737 -25.030774 -0.742797
LeftArm -2.901039 20.656320 -45.214814
LeftForeArm 15.173348 0.000000 0.625943
LeftHand -1.170616 0.000000 -13.893160
LeftHandThumb1 -26.253704 0.000000 33.147579
RightShoulder -7.360623 -12.736668 6.264877
RightArm 18.277313 5.920904 51.268684
RightForeArm -29.164916 -0.000000 8.357241
RightHand -2.593512 -0.000000 8.695518
RightHandThumb1 -24.326973 -0.000000 -32.862282
LeftUpLeg -1.527010 5.379200 2.460372
LeftLeg 4.855375 -0.000000 -0.000000
LeftFoot -1.328155 25.089853 8.079424
LeftToeBase -145.080299 -0.000000 0.000000
RightUpLeg 2.230036 -10.438064 0.844646
RightLeg -1.441834 -0.000000 0.000000
RightFoot -19.151526 -25.330070 14.952491
RightToeBase 22.348941 -0.000000 -0.000000
949
root 20.447684 35.874521 -20.392401 -178.809098 -1.029363 -180.295576
Spine -5.418790 -1.446235 -4.471371
Head 4.724875 -2.544607 0.423670
LeftShoulder -7.704816 -25.147062 -0.388929
LeftArm -2.785224 20.345473 -43.815874
LeftForeArm 14.751429 -0.000000 0.543979
LeftHand -1.189241 -0.000000 -13.508272
LeftHandThumb1 -26.253704 0.000000 33.147579
RightShoulder -7.462293 -12.811044 5.897404
RightArm 18.033860 7.044621 50.480335
RightForeArm -29.200747 -0.000000 8.212424
RightHand -2.508055 -0.000000 8.531454
RightHandThumb1 -24.326973 -0.000000 -32.862282
LeftUpLeg -1.812055 5.335117 2.507799
LeftLeg 5.187316 -0.000000 -0.000000
LeftFoot -1.911807 24.566539 8.216610
LeftToeBase -145.943473 -0.000000 0.000000
RightUpLeg 2.178952 -10.331669 0.854220
RightLeg -1.539265 -0.000000 0.000000
RightFoot -19.104421 -25.382494 14.817018
RightToeBase 22.549179 -0.000000 -0.000000
950
root 20.506726 35.877316 -20.400887 -178.681128 -1.070766 -180.366432
Spine -5.503640 -1.558194 -4.414089
Head 4.591116 -2.420597 0.432170
LeftShoulder -7.778484 -25.247148 -0.030028
LeftArm -2.581118 19.847352 -42.411090
LeftForeArm 14.542975 -0.000000 0.432967
LeftHand -1.422770 -0.000000 -13.483782
LeftHandThumb1 -26.253704 0.000000 33.147579
RightShoulder -7.538953 -12.889880 5.508535
RightArm 17.775765 8.186670 49.676463
RightForeArm -29.181302 -0.000000 8.099423
RightHand -2.613342 0.000000 8.290820
RightHandThumb1 -24.326973 -0.000000 -32.862282
LeftUpLeg -2.090630 5.268580 2.601737
LeftLeg 5.446108 -0.000000 -0.000000
LeftFoot -2.613064 24.014196 8.513528
LeftToeBase -146.539978 -0.000000 0.000000
RightUpLeg 2.143526 -10.264563 0.892915
RightLeg -1.684580 -0.000000 0.000000
RightFoot -19.077242 -25.448706 14.751039
RightToeBase 22.571882 -0.000000 -0.000000
951
root 20.565351 35.878424 -20.414407 -178.578058 -1.072819 -180.419299
Spine -5.586086 -1.608035 -4.360651
Head 4.483476 -2.378724 0.470178
LeftShoulder -7.867280 -25.308797 0.350034
LeftArm -2.331339 19.479858 -41.022037
LeftForeArm 14.105206 -0.000000 0.400146
LeftHand -1.590984 -0.000000 -13.225673
LeftHandThumb1 -26.253704 0.000000 33.147579
RightShoulder -7.628543 -12.992790 5.143322
RightArm 17.518935 9.330135 48.838514
RightForeArm -29.204938 0.000000 7.978926
RightHand -2.569710 -0.000000 8.077641
RightHandThumb1 -24.326973 -0.000000 -32.862282
LeftUpLeg -2.270456 5.192946 2.734179
LeftLeg 5.555726 -0.000000 -0.000000
LeftFoot -3.368780 23.695398 8.784027
LeftToeBase -146.635659 -0.000000 0.000000
RightUpLeg 2.133561 -10.192260 0.949271
RightLeg -1.825800 -0.000000 0.000000
RightFoot -19.059463 -25.512318 14.662511
RightToeBase 22.341166 -0.000000 -0.000000
952
root 20.625115 35.878999 -20.429154 -178.497961 -1.079543 -180.430773
Spine -5.658612 -1.655834 -4.266474
Head 4.437170 -2.275490 0.509038
LeftShoulder -7.927746 -25.438934 0.723602
LeftArm -2.146350 19.133213 -39.637351
LeftForeArm 13.639287 0.000000 0.359918
LeftHand -1.671748 -0.000000 -13.039557
LeftHandThumb1 -26.253704 0.000000 33.147579
RightShoulder -7.749850 -13.041733 4.813750
RightArm 17.253252 10.252294 47.847722
RightForeArm -29.106672 0.000000 7.842757
RightHand -2.702385 -0.000000 8.057531
RightHandThumb1 -24.326973 -0.000000 -32.862282
LeftUpLeg -2.392311 5.071190 2.936142
LeftLeg 5.569609 -0.000000 -0.000000
LeftFoot -4.169469 23.551005 9.142557
LeftToeBase -146.488661 -0.000000 0.000000
RightUpLeg 2.144145 -10.086757 1.048377
RightLeg -1.954539 -0.000000 0.000000
RightFoot -19.048330 -25.611757 14.655384
RightToeBase 22.254636 -0.000000 -0.000000
953
root 20.681677 35.878078 -20.447345 -178.446890 -1.064615 -180.425860
Spine -5.709080 -1.692658 -4.154120
Head 4.393303 -2.218827 0.548231
LeftShoulder -8.034529 -25.509244 1.102986
LeftArm -1.905811 18.869323 -38.268708
LeftForeArm 13.129445 -0.000000 0.409896
LeftHand -1.826976 -0.000000 -12.670030
LeftHandThumb1 -26.253704 0.000000 33.147579
RightShoulder -7.873266 -13.136562 4.480207
RightArm 17.071831 11.379243 46.937866
RightForeArm -29.308633 -0.000000 7.696677
RightHand -2.801948 0.000000 7.851732
RightHandThumb1 -24.326973 -0.000000 -32.862282
LeftUpLeg -2.413880 4.941729 3.163377
LeftLeg 5.406502 -0.000000 -0.000000
LeftFoot -4.831463 23.692198 9.504681
LeftToeBase -146.198800 -0.000000 0.000000
RightUpLeg 2.195096 -10.095762 1.153133
RightLeg -2.103417 -0.000000 0.000000
RightFoot -19.018261 -25.622688 14.665892
RightToeBase 22.184159 -0.000000 -0.000000
954
root 20.735916 35.876970 -20.473378 -178.437676 -1.047569 -180.419904
Spine -5.730083 -1.714788 -4.055688
Head 4.359212 -2.198625 0.611340
LeftShoulder -8.111889 -25.759704 1.519979
LeftArm -1.823167 18.742259 -36.954471
LeftForeArm 12.652419 -0.000000 0.469980
LeftHand -1.840711 -0.000000 -12.339405
LeftHandThumb1 -26.253704 0.000000 33.147579
RightShoulder -8.031017 -13.152000 4.192168
RightArm 16.851942 12.532687 45.983762
RightForeArm -29.458843 -0.000000 7.554048
RightHand -2.888632 -0.000000 7.750182
RightHandThumb1 -24.326973 -0.000000 -32.862282
LeftUpLeg -2.318956 4.826628 3.416301
LeftLeg 5.070588 -0.000000 -0.000000
LeftFoot -5.307593 24.046147 9.734163
LeftToeBase -146.005832 -0.000000 0.000000
RightUpLeg 2.319116 -10.107406 1.248273
RightLeg -2.294777 -0.000000 0.000000
RightFoot -18.968548 -25.650198 14.580746
RightToeBase 22.479618 -0.000000 -0.000000
